<?xml version="1.0" standalone="no"?>
<!DOCTYPE svg PUBLIC "-//W3C//DTD SVG 20010904//EN"
 "http://www.w3.org/TR/2001/REC-SVG-20010904/DTD/svg10.dtd">
<svg version="1.0" xmlns="http://www.w3.org/2000/svg"
 width="500.000000pt" height="500.000000pt" viewBox="0 0 500.000000 500.000000"
 preserveAspectRatio="xMidYMid meet">
<metadata>
Created by potrace 1.11, written by Peter Selinger 2001-2013
</metadata>
<g transform="translate(0.000000,500.000000) scale(0.100000,-0.100000)"
fill="#000000" stroke="none">
<path d="M433 4990 c-182 -37 -335 -173 -404 -360 l-24 -65 0 -2065 0 -2065
23 -62 c35 -96 71 -153 138 -219 55 -54 158 -117 211 -129 10 -3 36 -9 58 -14
50 -13 4062 -14 4120 -1 22 4 51 11 64 14 51 12 153 71 204 120 67 63 118 141
149 226 l23 65 0 2050 c0 1128 -3 2066 -6 2085 -3 19 -17 60 -30 90 -62 147
-165 247 -316 308 l-68 27 -2050 1 c-1127 1 -2069 -2 -2092 -6z"/>
</g>
</svg>
